<?xml version="1.0" encoding="UTF-8" standalone="no"?>
<svg
   xmlns:dc="http://purl.org/dc/elements/1.1/"
   xmlns:cc="http://creativecommons.org/ns#"
   xmlns:rdf="http://www.w3.org/1999/02/22-rdf-syntax-ns#"
   xmlns:svg="http://www.w3.org/2000/svg"
   xmlns="http://www.w3.org/2000/svg"
   width="320"
   height="320"
   id="svg2"
   version="1.1">
  <g>
    <path
       style="fill:#ffffff;"
       d="m 120,10.00002 a 10.001,10.001 0 0 0 -9.48633,6.83789 l -9.14258,27.43164 c -4.220921,2.13982 -8.314711,4.50283 -12.277341,7.08984 L 60.759766,45.56252 a 10.001,10.001 0 0 0 -10.664063,4.79687 l -40,69.28321 a 10.001,10.001 0 0 0 1.177735,11.63476 l 19.085937,21.52149 C 30.215858,155.1818 30.012081,157.56142 30,159.94924 a 10.001,10.001 0 0 0 0,0.13672 c 0.02046,2.36836 0.231105,4.72865 0.380859,7.09179 l -19.107421,21.54688 a 10.001,10.001 0 0 0 -1.177735,11.63476 l 40,69.28319 a 10.001,10.001 0 0 0 10.666016,4.7969 l 28.24805,-5.7813 c 3.99258,2.5923 8.1165,4.9587 12.369141,7.0977 l 9.13476,27.4063 A 10.001,10.001 0 0 0 120,309.99998 l 80,0 a 10.001,10.001 0 0 0 9.48633,-6.8378 l 9.14258,-27.4297 c 4.22044,-2.1398 8.31321,-4.503 12.27539,-7.0899 l 28.33593,5.7969 a 10.001,10.001 0 0 0 10.66407,-4.7969 l 40,-69.28319 a 10.001,10.001 0 0 0 -1.17774,-11.63476 l -19.08594,-21.52149 c 0.14356,-2.38364 0.34734,-4.76384 0.35938,-7.15234 a 10.001,10.001 0 0 0 0,-0.13672 c -0.0205,-2.36833 -0.23107,-4.72868 -0.38086,-7.0918 l 19.10742,-21.54492 a 10.001,10.001 0 0 0 1.17774,-11.63476 l -40,-69.28321 a 10.001,10.001 0 0 0 -10.66602,-4.79687 l -28.24805,5.78125 C 226.99832,48.75148 222.875,46.3853 218.62305,44.24611 l -9.13672,-27.4082 A 10.001,10.001 0 0 0 200,10.00002 l -80,0 z m 40,120 c 16.68699,0 30,13.31301 30,30 0,16.68699 -13.31301,29.99999 -30,30 -16.68699,-1e-5 -30,-13.31301 -30,-30 0,-16.68699 13.31301,-30 30,-30 z" />
    <path
       style="fill:#1a1a1a;"
       d="m 120,20.00002 -10.41992,31.26172 a 120,120 0 0 0 -18.5332,10.70507 l -32.29102,-6.60742 -40,69.28321 21.785157,24.5664 a 120,120 0 0 0 -0.541016,10.79102 120,120 0 0 0 0.576172,10.7539 l -21.820313,24.60547 40,69.28321 32.18945,-6.58789 a 120,120 0 0 0 18.63672,10.69137 L 120,299.99998 l 80,0 10.41992,-31.2597 a 120,120 0 0 0 18.53125,-10.70511 l 32.29297,6.60743 40,-69.28321 -21.78516,-24.5664 A 120,120 0 0 0 280,160.00002 120,120 0 0 0 279.42383,149.24807 l 21.82031,-24.60547 -40,-69.28321 -32.18945,6.58789 A 120,120 0 0 0 210.41797,51.25392 L 200,20.00002 l -80,0 z m 40,40 a 100,100 0 0 1 100,100 100,100 0 0 1 -100,100 100,100 0 0 1 -99.999999,-100 100,100 0 0 1 99.999999,-100 z m 0,10 a 90,90 0 0 0 -90,90 90,90 0 0 0 90,90 90,90 0 0 0 90,-90 90,90 0 0 0 -90,-90 z m 0,50 a 40.000008,40.000008 0 0 1 40,40 40.000008,40.000008 0 0 1 -40,40 40.000008,40.000008 0 0 1 -40,-40 40.000008,40.000008 0 0 1 40,-40 z" />
  </g>
</svg>
